<svg width="35" height="35" viewBox="0 0 35 35" fill="none" xmlns="http://www.w3.org/2000/svg">
<g clip-path="url(#clip0_10_181)">
<path opacity="0.982" fill-rule="evenodd" clip-rule="evenodd" d="M34.9658 9.33106C34.9658 15.6201 34.9658 21.9092 34.9658 28.1982C34.2717 31.7748 32.1298 33.9054 28.54 34.5898C21.1572 34.6354 13.7744 34.6354 6.3916 34.5898C3.6779 34.1317 1.72966 32.662 0.546875 30.1807C0.298337 29.5269 0.104653 28.8661 -0.0341797 28.1982C-0.0341797 21.9319 -0.0341797 15.6657 -0.0341797 9.39942C0.585246 6.05666 2.54488 3.94891 5.84473 3.07617C6.15929 2.99945 6.47829 2.96527 6.80176 2.97364C6.77448 2.26281 6.80866 1.55643 6.9043 0.854495C7.26763 0.310847 7.75756 0.162735 8.37402 0.410159C8.54492 0.489912 8.67022 0.615237 8.75 0.786136C8.84748 1.48712 8.88166 2.1935 8.85254 2.90528C11.3818 2.90528 13.9111 2.90528 16.4404 2.90528C16.4115 2.21623 16.4457 1.53264 16.543 0.854495C16.9035 0.310691 17.3934 0.162579 18.0127 0.410159C18.1637 0.538222 18.289 0.686331 18.3887 0.854495C18.4859 1.53264 18.5201 2.21623 18.4912 2.90528C21.0205 2.90528 23.5498 2.90528 26.0791 2.90528C26.0678 2.26685 26.0791 1.62883 26.1133 0.991214C26.4689 0.284418 27.0043 0.11352 27.7197 0.478519C27.8481 0.58399 27.9506 0.709313 28.0273 0.854495C28.1248 1.55548 28.159 2.26186 28.1299 2.97364C31.2791 3.30894 33.4324 4.94956 34.5898 7.89551C34.7279 8.37991 34.8532 8.85842 34.9658 9.33106ZM8.85254 4.8877C11.3818 4.8877 13.9111 4.8877 16.4404 4.8877C16.4137 5.39499 16.4479 5.89629 16.543 6.3916C16.8338 6.87285 17.2554 7.04375 17.8076 6.9043C18.1445 6.77258 18.3609 6.53333 18.457 6.18653C18.4912 5.75418 18.5026 5.32124 18.4912 4.8877C21.0205 4.8877 23.5498 4.8877 26.0791 4.8877C26.0678 5.344 26.0791 5.79973 26.1133 6.25489C26.4752 6.95372 27.0107 7.12462 27.7197 6.76758C27.8468 6.66109 27.9493 6.53577 28.0273 6.3916C28.122 5.91916 28.1561 5.44064 28.1299 4.95606C30.4249 5.30248 31.9744 6.56713 32.7783 8.75C22.57 8.7956 12.3616 8.7956 2.15332 8.75C2.95725 6.56713 4.50673 5.30248 6.80176 4.95606C6.7904 5.34409 6.8018 5.73146 6.83594 6.11817C7.09522 6.87996 7.60792 7.11922 8.37402 6.83594C8.57452 6.68115 8.72266 6.48747 8.81836 6.25489C8.85254 5.79973 8.86389 5.344 8.85254 4.8877ZM1.87988 10.6982C12.2705 10.6982 22.6611 10.6982 33.0518 10.6982C33.0632 16.1898 33.0518 21.6813 33.0176 27.1729C32.7869 30.1287 31.226 31.9402 28.335 32.6074C24.7131 32.6855 21.0901 32.7197 17.4658 32.71C13.8415 32.7197 10.2185 32.6855 6.59668 32.6074C3.6902 31.9567 2.12933 30.1452 1.91406 27.1729C1.87988 21.6813 1.86849 16.1898 1.87988 10.6982ZM7.21191 16.8506C8.3112 16.7761 8.7783 17.2774 8.61328 18.3545C8.22657 19.0578 7.66835 19.2287 6.93848 18.8672C6.43163 18.4369 6.32909 17.9242 6.63086 17.3291C6.79774 17.1272 6.99146 16.9677 7.21191 16.8506ZM17.124 16.8506C18.1826 16.7583 18.6497 17.2368 18.5254 18.2861C18.275 18.9253 17.8078 19.1646 17.124 19.0039C16.4162 18.6826 16.1997 18.1471 16.4746 17.3975C16.6361 17.1415 16.8525 16.9592 17.124 16.8506ZM26.9678 16.8506C28.0152 16.7702 28.5051 17.2487 28.4375 18.2861C28.0103 19.079 27.4064 19.2499 26.626 18.7988C26.0358 18.0263 26.1497 17.3769 26.9678 16.8506ZM7.21191 26.0791C8.3112 26.0046 8.7783 26.5059 8.61328 27.583C8.22657 28.2864 7.66835 28.4573 6.93848 28.0957C6.43163 27.6654 6.32909 27.1527 6.63086 26.5576C6.79774 26.3557 6.99146 26.1962 7.21191 26.0791ZM17.124 26.0791C18.1826 25.9868 18.6497 26.4653 18.5254 27.5147C18.275 28.1538 17.8078 28.3931 17.124 28.2324C16.4162 27.9111 16.1997 27.3756 16.4746 26.626C16.6361 26.37 16.8525 26.1877 17.124 26.0791ZM26.9678 26.0791C28.0152 25.9987 28.5051 26.4772 28.4375 27.5147C28.0103 28.3076 27.4064 28.4785 26.626 28.0273C26.0358 27.2548 26.1497 26.6054 26.9678 26.0791Z" fill="black"/>
<path opacity="0.959" fill-rule="evenodd" clip-rule="evenodd" d="M6.87006 14.8682C9.12407 14.6846 10.4001 15.71 10.6982 17.9443C10.4017 20.1888 9.12571 21.2029 6.87006 20.9863C5.09588 20.4129 4.30975 19.1939 4.51166 17.3291C4.82429 16.0482 5.61042 15.2279 6.87006 14.8682ZM7.21185 16.8506C6.99139 16.9677 6.79768 17.1272 6.6308 17.3291C6.32903 17.9242 6.43156 18.4369 6.93842 18.8672C7.66829 19.2287 8.22651 19.0578 8.61322 18.3545C8.77824 17.2773 8.31114 16.7761 7.21185 16.8506Z" fill="black"/>
<path opacity="0.96" fill-rule="evenodd" clip-rule="evenodd" d="M16.7823 14.8682C18.6948 14.6441 19.9366 15.4416 20.5079 17.2607C20.7535 18.9232 20.1269 20.1195 18.628 20.8496C16.8646 21.3561 15.5316 20.8206 14.629 19.2432C13.9819 17.0967 14.6997 15.6383 16.7823 14.8682ZM17.1241 16.8506C16.8526 16.9592 16.6362 17.1415 16.4747 17.3975C16.1998 18.1471 16.4163 18.6826 17.1241 19.0039C17.8079 19.1645 18.2751 18.9253 18.5255 18.2861C18.6498 17.2368 18.1827 16.7583 17.1241 16.8506Z" fill="black"/>
<path opacity="0.958" fill-rule="evenodd" clip-rule="evenodd" d="M26.6944 14.8682C28.2867 14.656 29.4601 15.2484 30.2149 16.6455C30.8201 18.4538 30.3074 19.8324 28.6768 20.7813C27.1976 21.3372 25.9329 21.0295 24.8828 19.8584C23.8944 18.2329 24.088 16.7632 25.4639 15.4492C25.8541 15.197 26.2642 15.0033 26.6944 14.8682ZM26.9678 16.8506C26.1497 17.3769 26.0359 18.0263 26.626 18.7988C27.4065 19.2499 28.0103 19.079 28.4375 18.2861C28.5051 17.2487 28.0153 16.7702 26.9678 16.8506Z" fill="black"/>
<path opacity="0.959" fill-rule="evenodd" clip-rule="evenodd" d="M6.87006 24.0967C9.12407 23.9131 10.4001 24.9385 10.6982 27.1728C10.4017 29.4174 9.12571 30.4314 6.87006 30.2148C5.09588 29.6414 4.30975 28.4224 4.51166 26.5576C4.82429 25.2767 5.61042 24.4564 6.87006 24.0967ZM7.21185 26.0791C6.99139 26.1962 6.79768 26.3557 6.6308 26.5576C6.32903 27.1527 6.43156 27.6654 6.93842 28.0957C7.66829 28.4573 8.22651 28.2864 8.61322 27.583C8.77824 26.5059 8.31114 26.0046 7.21185 26.0791Z" fill="black"/>
<path opacity="0.96" fill-rule="evenodd" clip-rule="evenodd" d="M16.7823 24.0967C18.6948 23.8726 19.9366 24.6701 20.5079 26.4893C20.7535 28.1517 20.1269 29.348 18.628 30.0781C16.8646 30.5846 15.5316 30.0491 14.629 28.4717C13.9819 26.3252 14.6997 24.8668 16.7823 24.0967ZM17.1241 26.0791C16.8526 26.1877 16.6362 26.37 16.4747 26.626C16.1998 27.3756 16.4163 27.9111 17.1241 28.2324C17.8079 28.3931 18.2751 28.1538 18.5255 27.5146C18.6498 26.4653 18.1827 25.9868 17.1241 26.0791Z" fill="black"/>
<path opacity="0.958" fill-rule="evenodd" clip-rule="evenodd" d="M26.6944 24.0967C28.2867 23.8845 29.4601 24.4769 30.2149 25.874C30.8201 27.6823 30.3074 29.0609 28.6768 30.0098C27.1976 30.5657 25.9329 30.2581 24.8828 29.0869C23.8944 27.4614 24.088 25.9917 25.4639 24.6777C25.8541 24.4255 26.2642 24.2318 26.6944 24.0967ZM26.9678 26.0791C26.1497 26.6054 26.0359 27.2548 26.626 28.0274C27.4065 28.4785 28.0103 28.3076 28.4375 27.5147C28.5051 26.4772 28.0153 25.9987 26.9678 26.0791Z" fill="black"/>
</g>
<defs>
<clipPath id="clip0_10_181">
<rect width="35" height="35" fill="white"/>
</clipPath>
</defs>
</svg>
