<svg width="55" height="55" viewBox="0 0 55 55" fill="none" xmlns="http://www.w3.org/2000/svg">
<g clip-path="url(#clip0_10_91)">
<path opacity="0.975" fill-rule="evenodd" clip-rule="evenodd" d="M54.9463 22.1827C54.9463 22.6123 54.9463 23.042 54.9463 23.4717C54.3416 24.9223 53.2674 25.4415 51.7236 25.0293C51.2816 24.7664 50.8698 24.462 50.4883 24.1162C50.4865 32.57 50.4148 41.0206 50.2734 49.4678C49.509 52.3986 47.665 54.2248 44.7412 54.9463C33.2113 54.9463 21.6813 54.9463 10.1514 54.9463C7.22759 54.2248 5.38351 52.3986 4.61914 49.4678C4.47778 41.0206 4.40617 32.57 4.4043 24.1162C3.38168 25.2563 2.18214 25.4891 0.805664 24.8145C0.425733 24.4987 0.139275 24.1227 -0.0537109 23.6866C-0.0537109 23.1495 -0.0537109 22.6123 -0.0537109 22.0752C0.139275 21.6391 0.425733 21.2631 0.805664 20.9473C8.25358 14.86 15.7015 8.77283 23.1494 2.68558C26.233 0.6672 29.2408 0.774621 32.1729 3.00785C39.4463 9.02829 46.751 15.0081 54.0869 20.9473C54.4456 21.3213 54.7321 21.7331 54.9463 22.1827ZM26.8018 5.96195C27.7113 5.79823 28.499 6.03097 29.165 6.66019C34.6436 11.154 40.1221 15.6479 45.6006 20.1416C45.7259 29.6303 45.7438 39.1193 45.6543 48.6084C45.3751 49.4964 44.7843 50.0513 43.8818 50.2735C32.9248 50.3451 21.9678 50.3451 11.0107 50.2735C10.2325 50.1041 9.67748 49.6564 9.3457 48.9307C9.22117 44.085 9.16746 39.2331 9.18457 34.375C9.22037 29.6305 9.25619 24.8861 9.29199 20.1416C15.0771 15.3358 20.9136 10.6092 26.8018 5.96195Z" fill="#FFAE00"/>
<path opacity="0.965" fill-rule="evenodd" clip-rule="evenodd" d="M17.8857 25.083C24.2595 25.0651 30.6333 25.083 37.0068 25.1367C38.7847 25.7027 39.3396 26.8664 38.6719 28.6279C38.2931 29.2566 37.738 29.6326 37.0068 29.7559C30.6332 29.8275 24.2594 29.8275 17.8857 29.7559C16.3902 29.333 15.7636 28.3482 16.0059 26.8018C16.3132 25.8674 16.9398 25.2944 17.8857 25.083Z" fill="#FFAE00"/>
<path opacity="0.965" fill-rule="evenodd" clip-rule="evenodd" d="M17.8857 38.833C24.2595 38.8151 30.6333 38.833 37.0068 38.8867C38.7847 39.4527 39.3396 40.6164 38.6719 42.3779C38.2931 43.0066 37.738 43.3826 37.0068 43.5059C30.6332 43.5775 24.2594 43.5775 17.8857 43.5059C16.3902 43.083 15.7636 42.0982 16.0059 40.5518C16.3132 39.6174 16.9398 39.0444 17.8857 38.833Z" fill="#FFAE00"/>
</g>
<defs>
<clipPath id="clip0_10_91">
<rect width="55" height="55" fill="white"/>
</clipPath>
</defs>
</svg>
