<svg width="106" height="106" viewBox="0 0 106 106" fill="none" xmlns="http://www.w3.org/2000/svg">
<g clip-path="url(#clip0_10_32)">
<path opacity="0.939" fill-rule="evenodd" clip-rule="evenodd" d="M105.896 45.4434C105.896 47.3066 105.896 49.1699 105.896 51.0332C104.371 59.0807 99.7479 64.4981 92.0254 67.2852C89.2356 68.0472 86.4061 68.2889 83.5371 68.0098C83.5717 77.3955 83.5371 86.7809 83.4336 96.166C82.1349 98.9802 80.0991 99.6357 77.3262 98.1328C76.2509 96.5072 75.1813 94.8855 74.1172 93.2676C72.5224 95.7631 71.0041 98.3167 69.5625 100.928C67.6195 102.773 65.6183 102.842 63.5586 101.135C62.0479 98.4541 60.4606 95.8319 58.7969 93.2676C57.1332 95.8319 55.5459 98.4541 54.0352 101.135C51.9754 102.842 49.9742 102.773 48.0312 100.928C46.5897 98.3167 45.0713 95.7631 43.4766 93.2676C41.7876 95.8151 40.2005 98.4376 38.7148 101.135C37.5963 102.286 36.2506 102.665 34.6777 102.273C33.9034 102.006 33.2478 101.558 32.7109 100.928C31.2592 98.298 29.7065 95.7445 28.0527 93.2676C27.0606 94.8029 26.0944 96.3557 25.1543 97.9258C23.2989 99.1945 21.4702 99.1599 19.668 97.8223C19.2828 97.3279 19.0067 96.7759 18.8398 96.166C18.7363 80.2248 18.7018 64.2834 18.7363 48.3418C13.3531 48.3764 7.97027 48.3418 2.58789 48.2383C1.34094 47.9207 0.4438 47.1961 -0.103516 46.0645C-0.103516 34.8158 -0.103516 23.567 -0.103516 12.3184C1.14726 7.44508 4.25273 4.51213 9.21289 3.51954C30.8131 3.38151 52.4135 3.38151 74.0137 3.51954C79.224 4.5892 82.3639 7.72917 83.4336 12.9395C83.5371 18.1148 83.5717 23.2906 83.5371 28.4668C93.3297 27.8227 100.334 31.8942 104.551 40.6816C105.102 42.2681 105.55 43.8552 105.896 45.4434ZM9.62695 6.93555C14.064 6.61619 16.997 8.54849 18.4258 12.7324C18.7317 23.421 18.8352 34.1177 18.7363 44.8223C13.5796 44.8902 8.43832 44.821 3.3125 44.6152C3.11313 34.0515 3.18213 23.4929 3.51953 12.9395C4.44022 9.77571 6.47602 7.7744 9.62695 6.93555ZM19.3574 7.14258C37.4724 6.90125 55.6223 6.86673 73.8066 7.03907C77.1779 7.8569 79.2137 9.96171 79.9141 13.3535C80.0522 18.6673 80.0522 23.9811 79.9141 29.2949C71.2734 32.7037 66.7533 39.0527 66.3535 48.3418C66.7359 57.557 71.2216 63.8369 79.8105 67.1816C80.0865 76.567 80.0865 85.9525 79.8105 95.3379C78.899 94.0001 78.0363 92.6198 77.2227 91.1973C75.8792 89.7282 74.2576 89.3487 72.3574 90.0586C71.8481 90.3605 71.3995 90.7399 71.0117 91.1973C69.5693 93.7775 68.0855 96.3308 66.5605 98.8574C64.9068 96.3805 63.354 93.827 61.9023 91.1973C60.3821 89.6402 58.6223 89.3296 56.623 90.2656C56.3125 90.5762 56.002 90.8867 55.6914 91.1973C54.2252 93.785 52.7071 96.3383 51.1367 98.8574C49.5664 96.3383 48.0482 93.785 46.582 91.1973C45.0618 89.6402 43.302 89.3296 41.3027 90.2656C40.7769 90.7221 40.3282 91.2397 39.957 91.8184C38.6954 94.2752 37.2807 96.6217 35.7129 98.8574C34.1879 96.3308 32.7041 93.7775 31.2617 91.1973C29.7415 89.6402 27.9817 89.3296 25.9824 90.2656C25.6719 90.5762 25.3613 90.8867 25.0508 91.1973C24.2371 92.6198 23.3744 94.0001 22.4629 95.3379C22.2904 68.01 22.1869 40.6819 22.1523 13.3535C21.8745 10.9589 20.9429 8.88854 19.3574 7.14258ZM83.7441 31.9863C92.1057 31.4547 98.0061 34.9742 101.445 42.5449C103.861 50.8266 101.549 57.417 94.5098 62.3164C86.6066 66.2838 79.6021 65.0761 73.4961 58.6934C69.5401 53.4058 68.781 47.6779 71.2188 41.5098C73.8292 36.2561 78.0042 33.0815 83.7441 31.9863ZM84.9863 37.3691C91.5993 37.3927 95.5675 40.6363 96.8906 47.0996C97.0033 53.5418 93.9324 57.51 87.6777 59.0039C80.9407 59.3062 76.8347 56.1661 75.3594 49.584C75.2244 42.8546 78.4334 38.783 84.9863 37.3691Z" fill="#090E10"/>
<path opacity="0.928" fill-rule="evenodd" clip-rule="evenodd" d="M46.2715 14.1816C54.8291 14.1471 63.3863 14.1816 71.9433 14.2852C73.159 14.9095 73.4696 15.8411 72.875 17.0801C72.688 17.3288 72.4466 17.5013 72.1504 17.5977C63.4551 17.7357 54.7598 17.7357 46.0644 17.5977C44.6426 16.3853 44.7115 15.2467 46.2715 14.1816Z" fill="#090E10"/>
<path opacity="0.932" fill-rule="evenodd" clip-rule="evenodd" d="M46.2715 23.084C54.8291 23.0494 63.3863 23.084 71.9433 23.1875C73.5143 24.2069 73.5832 25.311 72.1504 26.5C63.4551 26.6381 54.7598 26.6381 46.0644 26.5C44.6426 25.2876 44.7115 24.149 46.2715 23.084Z" fill="#090E10"/>
<path opacity="0.932" fill-rule="evenodd" clip-rule="evenodd" d="M46.2714 31.9863C53.0347 31.9518 59.7978 31.9863 66.5605 32.0898C67.3344 32.3795 67.6793 32.9316 67.5957 33.7461C67.6793 34.5606 67.3344 35.1127 66.5605 35.4023C59.7285 35.5404 52.8964 35.5404 46.0644 35.4023C44.645 34.1809 44.714 33.0422 46.2714 31.9863Z" fill="#090E10"/>
<path opacity="0.929" fill-rule="evenodd" clip-rule="evenodd" d="M84.7793 33.8496C90.9405 33.5995 95.5987 36.0839 98.7539 41.3027C101.519 47.1006 100.967 52.5524 97.0976 57.6582C92.5349 62.3615 87.1175 63.7072 80.8457 61.6953C73.5998 58.1416 70.7359 52.3793 72.2539 44.4082C73.7037 39.508 76.8436 36.2301 81.6738 34.5742C82.7288 34.2927 83.764 34.0513 84.7793 33.8496ZM84.9863 37.3691C78.4334 38.783 75.2244 42.8546 75.3594 49.584C76.8347 56.1661 80.9407 59.3062 87.6777 59.0039C93.9323 57.51 97.0032 53.5418 96.8906 47.0996C95.5675 40.6363 91.5993 37.3927 84.9863 37.3691Z" fill="#FFAE00"/>
<path opacity="0.927" fill-rule="evenodd" clip-rule="evenodd" d="M85.4004 39.8535C86.4635 39.6312 87.2571 39.9763 87.7813 40.8887C87.9194 43.5801 87.9194 46.2715 87.7813 48.9629C87.685 49.2592 87.5124 49.5006 87.2637 49.6875C84.4539 50.025 81.6244 50.0939 78.7754 49.8945C78.4057 49.732 78.0951 49.4906 77.8438 49.1699C77.7057 48.5488 77.7057 47.9277 77.8438 47.3066C78.0951 46.986 78.4057 46.7446 78.7754 46.582C80.6375 46.4785 82.5008 46.4442 84.3653 46.4785C84.3309 44.614 84.3653 42.7507 84.4688 40.8887C84.681 40.4359 84.9916 40.0908 85.4004 39.8535Z" fill="#FFAE00"/>
<path opacity="0.988" fill-rule="evenodd" clip-rule="evenodd" d="M29.916 43.5801C40.7508 43.5455 51.5855 43.5801 62.4199 43.6836C63.524 44.7187 63.524 45.7539 62.4199 46.7891C51.5853 46.9272 40.7506 46.9272 29.916 46.7891C28.8231 45.72 28.8231 44.6502 29.916 43.5801Z" fill="#090E10"/>
<path opacity="0.933" fill-rule="evenodd" clip-rule="evenodd" d="M30.7441 52.2754C37.5766 52.2408 44.4086 52.2754 51.2402 52.3789C52.7679 52.7774 53.2163 53.7091 52.5859 55.1738C52.399 55.4225 52.1576 55.5951 51.8613 55.6914C44.6152 55.8295 37.3691 55.8295 30.123 55.6914C28.8297 54.7569 28.7608 53.7217 29.916 52.5859C30.2386 52.5425 30.5145 52.4389 30.7441 52.2754Z" fill="#090E10"/>
<path opacity="0.936" fill-rule="evenodd" clip-rule="evenodd" d="M30.5372 61.1777C42.4762 61.1432 54.4149 61.1777 66.3536 61.2812C67.6918 61.6448 68.1402 62.5075 67.6993 63.8691C67.4577 64.1107 67.2163 64.3521 66.9747 64.5937C54.6909 64.7318 42.4069 64.7318 30.1231 64.5937C29.0807 63.97 28.8391 63.1073 29.3985 62.0059C29.709 61.5982 30.0885 61.3222 30.5372 61.1777Z" fill="#090E10"/>
<path opacity="0.931" fill-rule="evenodd" clip-rule="evenodd" d="M30.3301 70.0801C37.4385 70.0455 44.5465 70.0801 51.6543 70.1836C52.8692 70.813 53.1797 71.7446 52.586 72.9785C52.399 73.2272 52.1576 73.3998 51.8614 73.4961C44.6153 73.6342 37.3692 73.6342 30.1231 73.4961C29.0807 72.8723 28.8391 72.0096 29.3985 70.9082C29.6877 70.5832 29.9982 70.307 30.3301 70.0801Z" fill="#090E10"/>
<path opacity="0.935" fill-rule="evenodd" clip-rule="evenodd" d="M30.3301 78.9824C44.2014 78.9478 58.0725 78.9824 71.9434 79.0859C73.1591 79.7103 73.4696 80.642 72.875 81.8809C72.6881 82.1295 72.4467 82.3022 72.1504 82.3984C58.1412 82.5365 44.1323 82.5365 30.1231 82.3984C29.0807 81.7747 28.8391 80.912 29.3985 79.8105C29.6877 79.4855 29.9982 79.2093 30.3301 78.9824Z" fill="#090E10"/>
</g>
<defs>
<clipPath id="clip0_10_32">
<rect width="106" height="106" fill="white"/>
</clipPath>
</defs>
</svg>
