<svg width="106" height="106" viewBox="0 0 106 106" fill="none" xmlns="http://www.w3.org/2000/svg">
<path opacity="0.93" fill-rule="evenodd" clip-rule="evenodd" d="M31.7793 1.34572C44.7879 1.27455 54.6908 6.72638 61.4883 17.7012C66.9297 28.366 66.8605 38.9935 61.2812 49.584C54.3194 60.6053 44.2784 65.8846 31.1582 65.4219C17.1703 63.7853 7.75037 56.3666 2.89843 43.166C-0.614551 29.9895 2.52542 18.7063 12.3184 9.31642C17.9384 4.53953 24.4253 1.88262 31.7793 1.34572ZM31.7793 4.86525C43.9939 4.77704 53.0687 10.0218 59.0039 20.5996C63.9401 31.5543 62.8358 41.8369 55.6914 51.4473C47.5681 60.6136 37.5271 63.7536 25.5684 60.8672C16.2518 57.8996 9.9029 51.8268 6.52148 42.6485C3.11097 31.1479 5.59534 21.1414 13.9746 12.6289C19.0477 8.05641 24.9825 5.46852 31.7793 4.86525Z" fill="#090E10"/>
<path opacity="0.931" fill-rule="evenodd" clip-rule="evenodd" d="M86.4356 1.55272C87.0875 1.49296 87.7086 1.59648 88.2988 1.86326C92.06 5.62434 95.8209 9.38539 99.582 13.1465C100.02 14.1819 99.7781 15.0446 98.8574 15.7344C98.3053 15.8724 97.7533 15.8724 97.2012 15.7344C94.4752 13.0084 91.7494 10.2825 89.0234 7.55662C88.9545 16.528 88.8854 25.4994 88.8164 34.4707C88.0357 35.3584 87.1041 35.5309 86.0215 34.9883C85.7331 34.7458 85.5604 34.4353 85.5039 34.0566C85.435 25.2924 85.3658 16.528 85.2969 7.76365C82.709 10.3515 80.1211 12.9394 77.5332 15.5273C75.93 16.2441 74.9639 15.761 74.6348 14.0781C74.6108 13.5514 74.7832 13.1028 75.1523 12.7324C78.8917 8.95845 82.6527 5.23189 86.4356 1.55272Z" fill="#090E10"/>
<path opacity="0.93" fill-rule="evenodd" clip-rule="evenodd" d="M70.4942 40.2676C83.5028 40.1964 93.4057 45.6483 100.203 56.6231C105.645 67.2879 105.575 77.9154 99.9961 88.5059C91.8051 101.104 80.246 106.176 65.3184 103.723C54.4679 101.076 46.8421 94.6234 42.4414 84.3653C40.2065 78.4495 39.6544 72.3767 40.7852 66.1465C40.8655 65.9544 41.0036 65.8163 41.1993 65.7324C42.3218 65.4273 43.4259 65.0822 44.5118 64.6973C41.8837 77.5208 45.7138 87.9069 56.002 95.8555C66.0689 102.22 76.3513 102.565 86.8496 96.8906C98.5268 88.9878 102.771 78.1187 99.5821 64.2832C95.7058 52.9541 87.8732 46.2255 76.084 44.0977C72.3423 43.5789 68.6502 43.8205 65.0079 44.8223C64.9043 44.7533 64.8008 44.6842 64.6973 44.6153C65.1275 43.3944 65.4724 42.1522 65.7325 40.8887C67.3506 40.6966 68.9379 40.4895 70.4942 40.2676Z" fill="#090E10"/>
<path opacity="0.925" fill-rule="evenodd" clip-rule="evenodd" d="M17.7012 70.4942C18.7643 70.2718 19.5579 70.6169 20.0821 71.5293C20.1511 80.4317 20.2201 89.334 20.2891 98.2364C22.9459 95.5795 25.603 92.9225 28.2598 90.2657C29.8405 89.6413 30.8065 90.1588 31.1583 91.8184C31.0146 92.3542 30.7732 92.8372 30.4336 93.2676C26.788 96.9826 23.096 100.606 19.3575 104.137C18.7364 104.275 18.1153 104.275 17.4942 104.137C13.7331 100.376 9.97207 96.6147 6.21099 92.8536C5.58104 91.5873 5.89158 90.6557 7.14263 90.0586C7.8223 89.9048 8.44339 90.0429 9.00591 90.4727C11.5248 92.9916 14.0437 95.5104 16.5626 98.0293C16.6316 89.2651 16.7006 80.5006 16.7696 71.7364C16.9723 71.2254 17.2829 70.8113 17.7012 70.4942Z" fill="#090E10"/>
<path d="M24.9991 50.1016V16.5625H33.835C37.9397 16.5625 40.979 17.3924 42.953 19.0521C44.9583 20.7118 45.9609 23.1231 45.9609 26.286C45.9609 28.4155 45.4753 30.2474 44.5039 31.7819C43.5326 33.2851 42.0913 34.4437 40.18 35.2579C38.3 36.0722 35.9657 36.4793 33.177 36.4793H29.2291V50.1016H24.9991ZM20.9102 43.7132V40.6599H36.984V43.7132H20.9102ZM20.9102 36.4793V32.9093H31.6731V36.4793H20.9102ZM32.5661 32.9093C34.4774 32.9093 36.091 32.7057 37.407 32.2986C38.7543 31.8915 39.7883 31.2182 40.509 30.2788C41.2296 29.3393 41.59 28.0553 41.59 26.4269C41.59 24.2975 40.932 22.716 39.616 21.6826C38.3 20.6492 36.2477 20.1325 33.459 20.1325H29.2291V32.9093H32.5661Z" fill="#FFAE00"/>
<path d="M62.2783 56.6289H75.5665C78.4223 56.6289 80.7827 57.258 82.6477 58.5162C84.5419 59.7744 85.4889 61.7495 85.4889 64.4414C85.4889 65.9922 85.0664 67.3821 84.2213 68.611C83.4054 69.8107 82.298 70.6592 80.8993 71.1566C82.8226 71.5955 84.2942 72.5026 85.3141 73.8779C86.3632 75.2531 86.8877 76.9794 86.8877 79.0569C86.8877 84.9382 82.9537 87.8789 75.0857 87.8789H62.2783V56.6289ZM66.2997 60.1401V70.0155H73.6869C74.532 70.0155 75.246 70.0009 75.8288 69.9716C76.4407 69.9131 77.1255 69.796 77.8832 69.6205C78.6409 69.4449 79.2382 69.1962 79.6754 68.8743C80.1416 68.5232 80.535 68.0258 80.8556 67.3821C81.2052 66.7383 81.3801 65.9629 81.3801 65.0559C81.3801 64.1488 81.2344 63.388 80.943 62.7736C80.6516 62.1298 80.3019 61.647 79.8939 61.3252C79.4859 60.9741 78.9177 60.7107 78.1892 60.5352C77.4898 60.3596 76.8487 60.2572 76.2659 60.2279C75.7122 60.1694 74.9837 60.1401 74.0803 60.1401H66.2997ZM66.2997 73.2634V84.4116H74.5174C75.5374 84.4116 76.3679 84.3969 77.009 84.3677C77.6501 84.3091 78.364 84.1775 79.1508 83.9727C79.9668 83.7678 80.6079 83.4752 81.0741 83.0948C81.5404 82.6852 81.9338 82.1146 82.2543 81.3831C82.5749 80.6223 82.7351 79.7153 82.7351 78.6619C82.7351 77.7841 82.6186 77.0233 82.3854 76.3796C82.1815 75.7359 81.8172 75.2238 81.2927 74.8434C80.7973 74.4631 80.3165 74.1558 79.8502 73.9217C79.4131 73.6877 78.772 73.5267 77.9269 73.4389C77.0818 73.3512 76.4262 73.3073 75.9599 73.3073C75.4937 73.278 74.7797 73.2634 73.8181 73.2634H66.2997Z" fill="#FFAE00"/>
<path fill-rule="evenodd" clip-rule="evenodd" d="M72.4346 92.957L72.4346 51.5508L75.1689 51.5508L75.1689 92.957L72.4346 92.957Z" fill="#FFAE00"/>
</svg>
