<svg width="55" height="55" viewBox="0 0 55 55" fill="none" xmlns="http://www.w3.org/2000/svg">
<g clip-path="url(#clip0_10_102)">
<path opacity="0.981" fill-rule="evenodd" clip-rule="evenodd" d="M6.92871 -0.0537109C16.0238 -0.0537109 25.1188 -0.0537109 34.2139 -0.0537109C38.1532 0.824371 40.4628 3.25927 41.1426 7.25098C41.2142 8.64746 41.2142 10.0439 41.1426 11.4404C40.5548 13.2654 39.3194 13.9637 37.4365 13.5352C36.5426 13.1425 35.9517 12.4801 35.6641 11.5479C35.656 10.1096 35.5844 8.67732 35.4492 7.25098C35.0996 6.43572 34.5087 5.88071 33.6768 5.58594C26.733 5.40959 19.7865 5.37379 12.8369 5.47852C16.0165 6.81782 19.1676 8.2143 22.29 9.66797C25.1944 11.5532 26.8953 14.2208 27.3926 17.6709C27.4463 24.51 27.4642 31.3491 27.4463 38.1885C29.4519 38.2064 31.457 38.1885 33.4619 38.1348C34.5889 37.8672 35.2871 37.1689 35.5566 36.04C35.5924 34.751 35.6283 33.4619 35.6641 32.1729C36.1819 30.512 37.3099 29.8138 39.0479 30.0781C40.2229 30.3581 40.9212 31.0921 41.1426 32.2803C41.2142 33.6768 41.2142 35.0732 41.1426 36.4697C40.648 39.6256 38.9472 41.8635 36.04 43.1836C35.3479 43.4581 34.6317 43.6371 33.8916 43.7207C31.7435 43.7744 29.595 43.7924 27.4463 43.7744C27.4642 45.9232 27.4463 48.0716 27.3926 50.2197C26.7385 52.7538 25.145 54.3293 22.6123 54.9463C21.8604 54.9463 21.1084 54.9463 20.3564 54.9463C19.6532 54.7168 18.9729 54.4125 18.3154 54.0332C13.8389 51.2581 9.39884 48.4293 4.99512 45.5469C2.19554 43.1171 0.566306 40.0556 0.107422 36.3623C0.0358073 26.5511 0.0358073 16.7399 0.107422 6.92871C0.852991 3.08602 3.12675 0.758541 6.92871 -0.0537109ZM5.63965 8.54004C10.135 10.4028 14.6109 12.3185 19.0674 14.2871C20.5438 15.1422 21.4569 16.4133 21.8066 18.1006C21.8604 28.5563 21.8783 39.012 21.8604 49.4678C21.5678 49.3763 21.2813 49.2509 21.001 49.0918C16.9547 46.5494 12.9086 44.0072 8.8623 41.4648C7.12997 40.0601 6.07364 38.2519 5.69336 36.04C5.63965 26.8734 5.62174 17.7068 5.63965 8.54004Z" fill="#FFAE00"/>
<path opacity="0.977" fill-rule="evenodd" clip-rule="evenodd" d="M45.9229 13.5889C46.8286 13.4662 47.6521 13.6632 48.3936 14.1797C50.3451 16.1313 52.2965 18.0827 54.248 20.0342C54.9928 21.1581 55.0286 22.3038 54.3555 23.4717C52.2965 25.5307 50.2377 27.5895 48.1787 29.6485C46.6454 30.4376 45.3384 30.169 44.2578 28.8428C43.4677 27.1954 43.8078 25.8167 45.2783 24.7071C41.765 24.7032 38.2558 24.6315 34.751 24.4922C33.5468 24.0384 32.9022 23.161 32.8174 21.8604C32.9119 20.459 33.6281 19.5459 34.9658 19.1211C38.4033 19.0854 41.8408 19.0495 45.2783 19.0137C43.4312 17.4625 43.3238 15.8154 44.9561 14.0723C45.2882 13.9062 45.6105 13.7451 45.9229 13.5889Z" fill="#FFAE00"/>
</g>
<defs>
<clipPath id="clip0_10_102">
<rect width="55" height="55" fill="white"/>
</clipPath>
</defs>
</svg>
