<svg width="159" height="159" viewBox="0 0 159 159" fill="none" xmlns="http://www.w3.org/2000/svg">
<circle cx="79.0311" cy="79.0311" r="79.0311" fill="black"/>
<path d="M143.342 79.0557C143.342 114.533 114.571 143.293 79.0796 143.293C43.5881 143.293 14.8175 114.533 14.8175 79.0557C14.8175 43.5787 43.5881 14.818 79.0796 14.818C114.571 14.818 143.342 43.5787 143.342 79.0557Z" stroke="white" stroke-width="3"/>
<path d="M62.7086 95.2567C62.7086 94.8331 62.6367 94.4554 62.4928 94.1235C62.349 93.7917 62.1117 93.4952 61.7808 93.2339C61.4572 92.9657 61.0185 92.7186 60.4647 92.4926C59.9181 92.2596 59.2348 92.0302 58.4149 91.8043C57.631 91.5854 56.9226 91.3453 56.2897 91.0841C55.6568 90.8229 55.1138 90.5228 54.6607 90.1839C54.2148 89.8451 53.8732 89.4497 53.6358 88.9978C53.3985 88.5389 53.2798 88.0059 53.2798 87.3987C53.2798 86.8056 53.4093 86.2655 53.6682 85.7784C53.9271 85.2912 54.2903 84.8711 54.7578 84.5181C55.2325 84.1651 55.7898 83.8933 56.4299 83.7027C57.0772 83.5121 57.7856 83.4167 58.5552 83.4167C59.6556 83.4167 60.6049 83.6215 61.4032 84.031C62.2087 84.4405 62.8309 84.9947 63.2696 85.6937C63.7155 86.3856 63.9384 87.1622 63.9384 88.0235H62.6115C62.6115 87.3528 62.4497 86.7562 62.126 86.2338C61.8096 85.7043 61.3493 85.2912 60.7452 84.9947C60.1482 84.6911 59.4182 84.5393 58.5552 84.5393C57.6921 84.5393 56.9657 84.6699 56.376 84.9312C55.7934 85.1853 55.3511 85.5277 55.0491 85.9584C54.7542 86.382 54.6068 86.8551 54.6068 87.3775C54.6068 87.7446 54.6787 88.0835 54.8225 88.3942C54.9664 88.6978 55.2001 88.9837 55.5237 89.252C55.8546 89.5132 56.2897 89.7603 56.8291 89.9933C57.3685 90.2192 58.0338 90.4346 58.8249 90.6393C59.6592 90.8653 60.3999 91.1159 61.0472 91.3912C61.6945 91.6666 62.2411 91.9843 62.687 92.3444C63.1329 92.6974 63.471 93.1104 63.7011 93.5834C63.9312 94.0565 64.0463 94.6072 64.0463 95.2355C64.0463 95.8639 63.9097 96.4287 63.6364 96.93C63.3703 97.4242 62.9927 97.8443 62.5036 98.1902C62.0218 98.5362 61.45 98.8009 60.7883 98.9845C60.1338 99.168 59.4182 99.2598 58.6415 99.2598C57.9439 99.2598 57.2498 99.1716 56.5594 98.9951C55.869 98.8186 55.2361 98.5467 54.6607 98.1796C54.0925 97.8054 53.6358 97.3253 53.2906 96.7393C52.9526 96.1533 52.7836 95.4544 52.7836 94.6425H54.0997C54.0997 95.292 54.2328 95.8392 54.4989 96.2839C54.765 96.7287 55.1174 97.0888 55.5561 97.3642C56.002 97.6395 56.4911 97.8407 57.0233 97.9678C57.5627 98.0878 58.1021 98.1478 58.6415 98.1478C59.4686 98.1478 60.1842 98.0278 60.7883 97.7878C61.3996 97.5477 61.8707 97.2124 62.2016 96.7817C62.5396 96.344 62.7086 95.8356 62.7086 95.2567Z" fill="white"/>
<path d="M77.6616 90.544V91.656H68.1141V90.544H77.6616ZM68.427 83.6286V99.048H67.1001V83.6286H68.427ZM78.7296 83.6286V99.048H77.4027V83.6286H78.7296Z" fill="white"/>
<path d="M94.5241 90.5122V92.1643C94.5241 93.2445 94.3802 94.2224 94.0925 95.0978C93.812 95.9662 93.4021 96.7111 92.8627 97.3324C92.3305 97.9537 91.6904 98.4302 90.9424 98.7621C90.1944 99.0939 89.353 99.2598 88.418 99.2598C87.5046 99.2598 86.6703 99.0939 85.9152 98.7621C85.1672 98.4302 84.5235 97.9537 83.9841 97.3324C83.4447 96.7111 83.0276 95.9662 82.7327 95.0978C82.4378 94.2224 82.2904 93.2445 82.2904 92.1643V90.5122C82.2904 89.432 82.4342 88.4577 82.7219 87.5893C83.0168 86.7139 83.4339 85.9655 83.9733 85.3442C84.5127 84.7229 85.1564 84.2463 85.9044 83.9145C86.6524 83.5827 87.483 83.4167 88.3964 83.4167C89.3314 83.4167 90.1729 83.5827 90.9208 83.9145C91.6688 84.2463 92.3125 84.7229 92.8519 85.3442C93.3913 85.9655 93.8048 86.7139 94.0925 87.5893C94.3802 88.4577 94.5241 89.432 94.5241 90.5122ZM93.2079 92.1643V90.4911C93.2079 89.5803 93.1 88.7613 92.8843 88.0341C92.6757 87.3069 92.3628 86.6856 91.9457 86.1702C91.5358 85.6548 91.0323 85.2595 90.4354 84.9841C89.8384 84.7088 89.1588 84.5711 88.3964 84.5711C87.6556 84.5711 86.9904 84.7088 86.4006 84.9841C85.8109 85.2595 85.3074 85.6548 84.8903 86.1702C84.4804 86.6856 84.1639 87.3069 83.941 88.0341C83.7252 88.7613 83.6173 89.5803 83.6173 90.4911V92.1643C83.6173 93.0822 83.7252 93.9082 83.941 94.6425C84.1639 95.3697 84.484 95.9945 84.9011 96.5169C85.3182 97.0323 85.8217 97.4277 86.4114 97.703C87.0084 97.9784 87.6772 98.1161 88.418 98.1161C89.1876 98.1161 89.8672 97.9784 90.4569 97.703C91.0467 97.4277 91.5465 97.0323 91.9565 96.5169C92.3664 95.9945 92.6757 95.3697 92.8843 94.6425C93.1 93.9082 93.2079 93.0822 93.2079 92.1643Z" fill="white"/>
<path d="M103.403 92.768H98.9263V91.656H103.403C104.338 91.656 105.097 91.5077 105.68 91.2112C106.269 90.9076 106.697 90.4981 106.963 89.9827C107.237 89.4673 107.373 88.8884 107.373 88.2459C107.373 87.6176 107.237 87.0386 106.963 86.5091C106.697 85.9796 106.269 85.556 105.68 85.2383C105.097 84.9135 104.338 84.7511 103.403 84.7511H99.3902V99.048H98.0633V83.6286H103.403C104.554 83.6286 105.521 83.8227 106.305 84.211C107.096 84.5993 107.693 85.1394 108.096 85.8313C108.499 86.5232 108.7 87.321 108.7 88.2247C108.7 89.1708 108.499 89.9863 108.096 90.6711C107.693 91.3489 107.1 91.8678 106.316 92.2279C105.532 92.5879 104.561 92.768 103.403 92.768Z" fill="white"/>
<path d="M62.7086 95.2567C62.7086 94.8331 62.6367 94.4554 62.4928 94.1235C62.349 93.7917 62.1117 93.4952 61.7808 93.2339C61.4572 92.9657 61.0185 92.7186 60.4647 92.4926C59.9181 92.2596 59.2348 92.0302 58.4149 91.8043C57.631 91.5854 56.9226 91.3453 56.2897 91.0841C55.6568 90.8229 55.1138 90.5228 54.6607 90.1839C54.2148 89.8451 53.8732 89.4497 53.6358 88.9978C53.3985 88.5389 53.2798 88.0059 53.2798 87.3987C53.2798 86.8056 53.4093 86.2655 53.6682 85.7784C53.9271 85.2912 54.2903 84.8711 54.7578 84.5181C55.2325 84.1651 55.7898 83.8933 56.4299 83.7027C57.0772 83.5121 57.7856 83.4167 58.5552 83.4167C59.6556 83.4167 60.6049 83.6215 61.4032 84.031C62.2087 84.4405 62.8309 84.9947 63.2696 85.6937C63.7155 86.3856 63.9384 87.1622 63.9384 88.0235H62.6115C62.6115 87.3528 62.4497 86.7562 62.126 86.2338C61.8096 85.7043 61.3493 85.2912 60.7452 84.9947C60.1482 84.6911 59.4182 84.5393 58.5552 84.5393C57.6921 84.5393 56.9657 84.6699 56.376 84.9312C55.7934 85.1853 55.3511 85.5277 55.0491 85.9584C54.7542 86.382 54.6068 86.8551 54.6068 87.3775C54.6068 87.7446 54.6787 88.0835 54.8225 88.3942C54.9664 88.6978 55.2001 88.9837 55.5237 89.252C55.8546 89.5132 56.2897 89.7603 56.8291 89.9933C57.3685 90.2192 58.0338 90.4346 58.8249 90.6393C59.6592 90.8653 60.3999 91.1159 61.0472 91.3912C61.6945 91.6666 62.2411 91.9843 62.687 92.3444C63.1329 92.6974 63.471 93.1104 63.7011 93.5834C63.9312 94.0565 64.0463 94.6072 64.0463 95.2355C64.0463 95.8639 63.9097 96.4287 63.6364 96.93C63.3703 97.4242 62.9927 97.8443 62.5036 98.1902C62.0218 98.5362 61.45 98.8009 60.7883 98.9845C60.1338 99.168 59.4182 99.2598 58.6415 99.2598C57.9439 99.2598 57.2498 99.1716 56.5594 98.9951C55.869 98.8186 55.2361 98.5467 54.6607 98.1796C54.0925 97.8054 53.6358 97.3253 53.2906 96.7393C52.9526 96.1533 52.7836 95.4544 52.7836 94.6425H54.0997C54.0997 95.292 54.2328 95.8392 54.4989 96.2839C54.765 96.7287 55.1174 97.0888 55.5561 97.3642C56.002 97.6395 56.4911 97.8407 57.0233 97.9678C57.5627 98.0878 58.1021 98.1478 58.6415 98.1478C59.4686 98.1478 60.1842 98.0278 60.7883 97.7878C61.3996 97.5477 61.8707 97.2124 62.2016 96.7817C62.5396 96.344 62.7086 95.8356 62.7086 95.2567Z" stroke="white"/>
<path d="M77.6616 90.544V91.656H68.1141V90.544H77.6616ZM68.427 83.6286V99.048H67.1001V83.6286H68.427ZM78.7296 83.6286V99.048H77.4027V83.6286H78.7296Z" stroke="white"/>
<path d="M94.5241 90.5122V92.1643C94.5241 93.2445 94.3802 94.2224 94.0925 95.0978C93.812 95.9662 93.4021 96.7111 92.8627 97.3324C92.3305 97.9537 91.6904 98.4302 90.9424 98.7621C90.1944 99.0939 89.353 99.2598 88.418 99.2598C87.5046 99.2598 86.6703 99.0939 85.9152 98.7621C85.1672 98.4302 84.5235 97.9537 83.9841 97.3324C83.4447 96.7111 83.0276 95.9662 82.7327 95.0978C82.4378 94.2224 82.2904 93.2445 82.2904 92.1643V90.5122C82.2904 89.432 82.4342 88.4577 82.7219 87.5893C83.0168 86.7139 83.4339 85.9655 83.9733 85.3442C84.5127 84.7229 85.1564 84.2463 85.9044 83.9145C86.6524 83.5827 87.483 83.4167 88.3964 83.4167C89.3314 83.4167 90.1729 83.5827 90.9208 83.9145C91.6688 84.2463 92.3125 84.7229 92.8519 85.3442C93.3913 85.9655 93.8048 86.7139 94.0925 87.5893C94.3802 88.4577 94.5241 89.432 94.5241 90.5122ZM93.2079 92.1643V90.4911C93.2079 89.5803 93.1 88.7613 92.8843 88.0341C92.6757 87.3069 92.3628 86.6856 91.9457 86.1702C91.5358 85.6548 91.0323 85.2595 90.4354 84.9841C89.8384 84.7088 89.1588 84.5711 88.3964 84.5711C87.6556 84.5711 86.9904 84.7088 86.4006 84.9841C85.8109 85.2595 85.3074 85.6548 84.8903 86.1702C84.4804 86.6856 84.1639 87.3069 83.941 88.0341C83.7252 88.7613 83.6173 89.5803 83.6173 90.4911V92.1643C83.6173 93.0822 83.7252 93.9082 83.941 94.6425C84.1639 95.3697 84.484 95.9945 84.9011 96.5169C85.3182 97.0323 85.8217 97.4277 86.4114 97.703C87.0084 97.9784 87.6772 98.1161 88.418 98.1161C89.1876 98.1161 89.8672 97.9784 90.4569 97.703C91.0467 97.4277 91.5465 97.0323 91.9565 96.5169C92.3664 95.9945 92.6757 95.3697 92.8843 94.6425C93.1 93.9082 93.2079 93.0822 93.2079 92.1643Z" stroke="white"/>
<path d="M103.403 92.768H98.9263V91.656H103.403C104.338 91.656 105.097 91.5077 105.68 91.2112C106.269 90.9076 106.697 90.4981 106.963 89.9827C107.237 89.4673 107.373 88.8884 107.373 88.2459C107.373 87.6176 107.237 87.0386 106.963 86.5091C106.697 85.9796 106.269 85.556 105.68 85.2383C105.097 84.9135 104.338 84.7511 103.403 84.7511H99.3902V99.048H98.0633V83.6286H103.403C104.554 83.6286 105.521 83.8227 106.305 84.211C107.096 84.5993 107.693 85.1394 108.096 85.8313C108.499 86.5232 108.7 87.321 108.7 88.2247C108.7 89.1708 108.499 89.9863 108.096 90.6711C107.693 91.3489 107.1 91.8678 106.316 92.2279C105.532 92.5879 104.561 92.768 103.403 92.768Z" stroke="white"/>
<path d="M73.5645 66.8022V65.7974C73.5645 64.1762 73.3412 62.7298 72.8947 61.458C72.4578 60.1766 71.8365 59.0845 71.0308 58.1817C70.2347 57.2788 69.2834 56.5896 68.1767 56.1139C67.0797 55.6382 65.8614 55.4004 64.5217 55.4004C63.1918 55.4004 61.9734 55.6382 60.8668 56.1139C59.7698 56.5896 58.8184 57.2788 58.0127 58.1817C57.2166 59.0845 56.6002 60.1766 56.1633 61.458C55.7265 62.7298 55.5081 64.1762 55.5081 65.7974V66.8022C55.5081 68.4136 55.7265 69.8601 56.1633 71.1415C56.6099 72.423 57.2361 73.5151 58.0418 74.4179C58.8475 75.311 59.7989 75.9954 60.8959 76.4711C62.0026 76.9468 63.2209 77.1846 64.5509 77.1846C65.8905 77.1846 67.1088 76.9468 68.2058 76.4711C69.3125 75.9954 70.2639 75.311 71.0599 74.4179C71.8559 73.5151 72.4724 72.423 72.9092 71.1415C73.3461 69.8601 73.5645 68.4136 73.5645 66.8022ZM69.1523 65.7683V66.8022C69.1523 67.9185 69.0504 68.9087 68.8465 69.7727C68.6427 70.627 68.3466 71.3502 67.9583 71.9424C67.57 72.5249 67.0894 72.9666 66.5167 73.2675C65.9439 73.5685 65.2886 73.7189 64.5509 73.7189C63.8131 73.7189 63.1578 73.5685 62.585 73.2675C62.0123 72.9666 61.5269 72.5249 61.1289 71.9424C60.7309 71.3502 60.4299 70.627 60.226 69.7727C60.0222 68.9087 59.9203 67.9185 59.9203 66.8022V65.7683C59.9203 64.6422 60.0222 63.652 60.226 62.7977C60.4299 61.9434 60.726 61.225 61.1143 60.6426C61.5123 60.0601 61.9929 59.6233 62.5559 59.332C63.1287 59.0311 63.7839 58.8806 64.5217 58.8806C65.2595 58.8806 65.9148 59.0311 66.4876 59.332C67.0603 59.6233 67.5457 60.0601 67.9437 60.6426C68.3417 61.225 68.6427 61.9434 68.8465 62.7977C69.0504 63.652 69.1523 64.6422 69.1523 65.7683ZM35.6256 55.6916H33.6161H31.927H29.932V76.8934H34.2859V70.8649L33.8512 61.0182L39.5864 76.8934H42.5569L48.2921 61.0182L47.8574 70.8649V76.8934H52.2259V55.6916H50.2164H48.5272H46.5177L41.0717 71.258L35.6256 55.6916ZM94.0586 55.6916V76.8934H89.6901L81.1715 62.6812V76.8934H76.803V55.6916H81.1715L89.7046 69.9183V55.6916H94.0586ZM112.179 76.8934V73.486H102.321V67.6467H110.708V64.3267H102.321V59.1136H112.165V55.6916H102.321H100.894H97.9523V76.8934H100.894H102.321H112.179ZM117.733 55.6916L122.16 65.3606L126.586 55.6916H131.348L124.373 69.1757V76.8934H119.946V69.1757L112.957 55.6916H117.733Z" fill="white"/>
<path d="M73.5645 66.8022V65.7974C73.5645 64.1762 73.3412 62.7298 72.8947 61.458C72.4578 60.1766 71.8365 59.0845 71.0308 58.1817C70.2347 57.2788 69.2834 56.5896 68.1767 56.1139C67.0797 55.6382 65.8614 55.4004 64.5217 55.4004C63.1918 55.4004 61.9734 55.6382 60.8668 56.1139C59.7698 56.5896 58.8184 57.2788 58.0127 58.1817C57.2166 59.0845 56.6002 60.1766 56.1633 61.458C55.7265 62.7298 55.5081 64.1762 55.5081 65.7974V66.8022C55.5081 68.4136 55.7265 69.8601 56.1633 71.1415C56.6099 72.423 57.2361 73.5151 58.0418 74.4179C58.8475 75.311 59.7989 75.9954 60.8959 76.4711C62.0026 76.9468 63.2209 77.1846 64.5509 77.1846C65.8905 77.1846 67.1088 76.9468 68.2058 76.4711C69.3125 75.9954 70.2639 75.311 71.0599 74.4179C71.8559 73.5151 72.4724 72.423 72.9092 71.1415C73.3461 69.8601 73.5645 68.4136 73.5645 66.8022ZM69.1523 65.7683V66.8022C69.1523 67.9185 69.0504 68.9087 68.8465 69.7727C68.6427 70.627 68.3466 71.3502 67.9583 71.9424C67.57 72.5249 67.0894 72.9666 66.5167 73.2675C65.9439 73.5685 65.2886 73.7189 64.5509 73.7189C63.8131 73.7189 63.1578 73.5685 62.585 73.2675C62.0123 72.9666 61.5269 72.5249 61.1289 71.9424C60.7309 71.3502 60.4299 70.627 60.226 69.7727C60.0222 68.9087 59.9203 67.9185 59.9203 66.8022V65.7683C59.9203 64.6422 60.0222 63.652 60.226 62.7977C60.4299 61.9434 60.726 61.225 61.1143 60.6426C61.5123 60.0601 61.9929 59.6233 62.5559 59.332C63.1287 59.0311 63.7839 58.8806 64.5217 58.8806C65.2595 58.8806 65.9148 59.0311 66.4876 59.332C67.0603 59.6233 67.5457 60.0601 67.9437 60.6426C68.3417 61.225 68.6427 61.9434 68.8465 62.7977C69.0504 63.652 69.1523 64.6422 69.1523 65.7683ZM35.6256 55.6916H33.6161H31.927H29.932V76.8934H34.2859V70.8649L33.8512 61.0182L39.5864 76.8934H42.5569L48.2921 61.0182L47.8574 70.8649V76.8934H52.2259V55.6916H50.2164H48.5272H46.5177L41.0717 71.258L35.6256 55.6916ZM94.0586 55.6916V76.8934H89.6901L81.1715 62.6812V76.8934H76.803V55.6916H81.1715L89.7046 69.9183V55.6916H94.0586ZM112.179 76.8934V73.486H102.321V67.6467H110.708V64.3267H102.321V59.1136H112.165V55.6916H102.321H100.894H97.9523V76.8934H100.894H102.321H112.179ZM117.733 55.6916L122.16 65.3606L126.586 55.6916H131.348L124.373 69.1757V76.8934H119.946V69.1757L112.957 55.6916H117.733Z" stroke="white"/>
<line x1="29.932" y1="91.2367" x2="47.639" y2="91.2367" stroke="white" stroke-width="3"/>
<line x1="114.292" y1="91.2367" x2="131.999" y2="91.2367" stroke="white" stroke-width="3"/>
</svg>
