<svg width="106" height="106" viewBox="0 0 106 106" fill="none" xmlns="http://www.w3.org/2000/svg">
<g clip-path="url(#clip0_10_68)">
<path opacity="0.954" fill-rule="evenodd" clip-rule="evenodd" d="M37.9902 -0.103516C47.9277 -0.103516 57.8652 -0.103516 67.8027 -0.103516C69.5149 0.677553 70.5846 1.98875 71.0117 3.83008C71.1498 6.03842 71.1498 8.24674 71.0117 10.4551C70.6728 12.588 69.465 13.9337 67.3887 14.4922C57.7271 14.6302 48.0658 14.6302 38.4043 14.4922C36.422 13.9588 35.2141 12.6821 34.7812 10.6621C34.6432 8.38477 34.6432 6.10742 34.7812 3.83008C35.1682 1.94738 36.2377 0.636186 37.9902 -0.103516ZM39.4394 3.00195C48.4111 2.96744 57.3824 3.00195 66.3535 3.10547C66.9897 3.25838 67.4383 3.63793 67.6992 4.24414C67.8373 6.24545 67.8373 8.24674 67.6992 10.248C67.5268 10.6966 67.2162 11.0072 66.7676 11.1797C57.5201 11.3177 48.2728 11.3177 39.0254 11.1797C38.5767 11.0072 38.2662 10.6966 38.0937 10.248C37.9557 8.24674 37.9557 6.24545 38.0937 4.24414C38.391 3.63508 38.8397 3.22101 39.4394 3.00195Z" fill="#090E10"/>
<path opacity="0.949" fill-rule="evenodd" clip-rule="evenodd" d="M87.6777 105.896C64.4902 105.896 41.3027 105.896 18.1152 105.896C15.086 104.832 13.3953 102.693 13.043 99.4785C12.9049 70.356 12.9049 41.2338 13.043 12.1113C13.4122 8.36779 15.448 6.19396 19.1504 5.58984C20.8756 5.55533 22.601 5.52084 24.3262 5.48633C26.2731 5.46014 28.2053 5.56365 30.1231 5.79687C30.8729 6.62539 30.9421 7.52254 30.3301 8.48828C26.6913 8.75879 23.0337 8.89681 19.3574 8.90234C17.5679 9.33798 16.5673 10.4766 16.3555 12.3184C16.2174 41.3027 16.2174 70.2871 16.3555 99.2715C16.666 101.238 17.8047 102.377 19.7715 102.688C41.8549 102.826 63.9381 102.826 86.0215 102.688C87.9883 102.377 89.127 101.238 89.4375 99.2715C89.5756 70.2871 89.5756 41.3027 89.4375 12.3184C89.2257 10.4766 88.2251 9.33798 86.4355 8.90234C82.916 8.83334 79.3965 8.76431 75.877 8.69531C75.2525 8.37884 74.9766 7.86127 75.0488 7.14258C75.036 6.29191 75.4501 5.77433 76.291 5.58984C79.7416 5.45181 83.192 5.45181 86.6426 5.58984C90.3449 6.19396 92.3809 8.36779 92.75 12.1113C92.8881 41.2338 92.8881 70.356 92.75 99.4785C92.3976 102.693 90.707 104.832 87.6777 105.896ZM26.3965 25.3613C28.9508 25.3268 31.5042 25.3613 34.0566 25.4648C34.1602 25.5684 34.2637 25.6719 34.3672 25.7754C34.6005 27.0652 34.704 28.3763 34.6777 29.709C34.6432 30.8822 34.6088 32.0553 34.5742 33.2285C34.5102 33.4906 34.4067 33.7322 34.2637 33.9531C31.7251 34.2856 29.1715 34.3546 26.6035 34.1602C26.3073 34.0639 26.0659 33.8912 25.8789 33.6426C25.7408 31.0893 25.7408 28.5357 25.8789 25.9824C26.0234 25.7358 26.1959 25.5288 26.3965 25.3613ZM26.1895 51.4473C28.8127 51.4127 31.4352 51.4473 34.0566 51.5508C34.1602 51.6543 34.2637 51.7578 34.3672 51.8613C34.7036 54.3258 34.7726 56.8102 34.5742 59.3145C34.478 59.6107 34.3053 59.8521 34.0566 60.0391C31.3841 60.2092 28.7272 60.1747 26.0859 59.9355C25.852 58.5418 25.7485 57.1272 25.7754 55.6914C25.81 54.4146 25.8443 53.1381 25.8789 51.8613C26.0274 51.7487 26.1309 51.6106 26.1895 51.4473ZM26.6035 77.3262C29.0198 77.2916 31.4352 77.3262 33.8496 77.4297C34.0393 77.5071 34.2119 77.6106 34.3672 77.7402C34.596 79.07 34.6995 80.4157 34.6777 81.7773C34.6432 82.916 34.6088 84.0547 34.5742 85.1934C34.5102 85.4555 34.4067 85.6971 34.2637 85.918C31.6611 86.2548 29.0386 86.3238 26.3965 86.125C26.224 85.9525 26.0514 85.7799 25.8789 85.6074C25.7408 83.0541 25.7408 80.5006 25.8789 77.9473C26.116 77.7121 26.3576 77.505 26.6035 77.3262Z" fill="#090E10"/>
<path opacity="0.943" fill-rule="evenodd" clip-rule="evenodd" d="M25.7754 22.0489C28.7436 22.0143 31.7112 22.0489 34.6777 22.1524C36.5766 22.7397 37.6463 24.0165 37.8867 25.9825C38.0706 28.8894 38.0014 31.7878 37.6797 34.6778C37.231 35.9545 36.3685 36.817 35.0918 37.2657C31.8482 37.4037 28.6049 37.4037 25.3613 37.2657C23.9326 36.734 23.001 35.7332 22.5664 34.2637C22.4283 31.2963 22.4283 28.3287 22.5664 25.3614C22.9836 23.5987 24.0533 22.4946 25.7754 22.0489ZM26.3965 25.3614C26.1959 25.5288 26.0234 25.7359 25.8789 25.9825C25.7408 28.5358 25.7408 31.0893 25.8789 33.6426C26.0658 33.8913 26.3072 34.0639 26.6035 34.1602C29.1715 34.3546 31.725 34.2856 34.2637 33.9532C34.4067 33.7323 34.5102 33.4906 34.5742 33.2285C34.6088 32.0553 34.6432 30.8823 34.6777 29.709C34.704 28.3764 34.6005 27.0652 34.3672 25.7754C34.2637 25.6719 34.1601 25.5684 34.0566 25.4649C31.5041 25.3614 28.9508 25.3268 26.3965 25.3614Z" fill="#FFAE00"/>
<path opacity="0.93" fill-rule="evenodd" clip-rule="evenodd" d="M47.3067 24.1192C58.9696 24.0846 70.6325 24.1192 82.2949 24.2227C83.3373 24.8465 83.579 25.7092 83.0196 26.8106C82.8326 27.0592 82.5912 27.2319 82.2949 27.3282C70.6323 27.4662 58.9694 27.4662 47.3067 27.3282C45.938 26.2512 45.938 25.1814 47.3067 24.1192Z" fill="#090E10"/>
<path opacity="0.981" fill-rule="evenodd" clip-rule="evenodd" d="M47.0996 32.1934C53.3109 32.1588 59.5219 32.1934 65.7324 32.2969C66.8365 33.2631 66.8365 34.2291 65.7324 35.1953C59.5215 35.3334 53.3105 35.3334 47.0996 35.1953C46.009 34.1956 46.009 33.1948 47.0996 32.1934Z" fill="#090E10"/>
<path opacity="0.933" fill-rule="evenodd" clip-rule="evenodd" d="M25.3613 48.1348C28.5366 48.1002 31.711 48.1348 34.8848 48.2383C36.6557 48.9058 37.6565 50.1825 37.8867 52.0684C38.0248 54.5528 38.0248 57.0371 37.8867 59.5215C37.6463 61.4875 36.5766 62.7642 34.6777 63.3516C31.6412 63.4897 28.6049 63.4897 25.5684 63.3516C24.0156 62.903 23.015 61.9024 22.5664 60.3496C22.4283 57.3131 22.4283 54.2768 22.5664 51.2403C23.0349 49.7718 23.9665 48.7366 25.3613 48.1348ZM26.1894 51.4473C26.1309 51.6106 26.0273 51.7487 25.8789 51.8614C25.8443 53.1381 25.81 54.4147 25.7754 55.6914C25.7485 57.1272 25.852 58.5418 26.0859 59.9356C28.7272 60.1747 31.3841 60.2093 34.0566 60.0391C34.3053 59.8521 34.4779 59.6107 34.5742 59.3145C34.7725 56.8102 34.7036 54.3259 34.3672 51.8614C34.2637 51.7578 34.1601 51.6543 34.0566 51.5508C31.4352 51.4473 28.8127 51.4127 26.1894 51.4473Z" fill="#FFAE00"/>
<path opacity="0.931" fill-rule="evenodd" clip-rule="evenodd" d="M47.0996 50.2051C58.9006 50.1705 70.7014 50.2051 82.502 50.3086C83.3825 51.0167 83.5551 51.8794 83.0195 52.8965C82.7258 53.0953 82.4152 53.2677 82.0879 53.4141C70.5631 53.5522 59.0385 53.5522 47.5137 53.4141C46.045 52.5224 45.9071 51.4527 47.0996 50.2051Z" fill="#090E10"/>
<path opacity="0.926" fill-rule="evenodd" clip-rule="evenodd" d="M47.5137 58.0723C53.4491 58.0377 59.3838 58.0723 65.3184 58.1758C66.8684 59.1294 66.9376 60.1646 65.5254 61.2813C59.4525 61.4194 53.3795 61.4194 47.3066 61.2813C46.2574 60.6637 46.0158 59.8012 46.582 58.6934C46.8737 58.4282 47.1843 58.2212 47.5137 58.0723Z" fill="#090E10"/>
<path opacity="0.933" fill-rule="evenodd" clip-rule="evenodd" d="M26.1894 74.0137C28.8817 73.9791 31.5731 74.0137 34.2637 74.1172C36.4903 74.5495 37.6979 75.8952 37.8867 78.1543C38.0248 80.6387 38.0248 83.1231 37.8867 85.6075C37.6178 87.6701 36.4791 88.9469 34.4707 89.4375C31.5723 89.5756 28.6738 89.5756 25.7754 89.4375C24.0156 89.058 22.9459 87.9883 22.5664 86.2285C22.4283 83.2612 22.4283 80.2936 22.5664 77.3262C23.1664 75.517 24.374 74.4129 26.1894 74.0137ZM26.6035 77.3262C26.3576 77.5051 26.1159 77.7121 25.8789 77.9473C25.7408 80.5006 25.7408 83.0541 25.8789 85.6075C26.0514 85.7799 26.224 85.9526 26.3965 86.125C29.0386 86.3238 31.6611 86.2548 34.2637 85.918C34.4067 85.6971 34.5102 85.4555 34.5742 85.1934C34.6088 84.0547 34.6432 82.916 34.6777 81.7774C34.6995 80.4157 34.5959 79.07 34.3672 77.7403C34.2119 77.6107 34.0392 77.5071 33.8496 77.4297C31.4352 77.3262 29.0198 77.2916 26.6035 77.3262Z" fill="#FFAE00"/>
<path opacity="0.931" fill-rule="evenodd" clip-rule="evenodd" d="M47.7207 76.084C59.1766 76.0494 70.6325 76.084 82.0879 76.1875C83.2108 76.6051 83.5905 77.3987 83.2266 78.5684C82.985 78.81 82.7436 79.0514 82.502 79.293C70.7012 79.4311 58.9004 79.4311 47.0996 79.293C45.8887 77.9293 46.0957 76.8596 47.7207 76.084Z" fill="#090E10"/>
<path opacity="0.926" fill-rule="evenodd" clip-rule="evenodd" d="M47.3067 84.1582C53.3799 84.1237 59.453 84.1582 65.5254 84.2617C66.9376 85.3785 66.8684 86.4136 65.3184 87.3672C59.3834 87.5053 53.4487 87.5053 47.5137 87.3672C46.6599 87.1639 46.2458 86.612 46.2715 85.711C46.34 84.9905 46.6852 84.4729 47.3067 84.1582Z" fill="#090E10"/>
</g>
<defs>
<clipPath id="clip0_10_68">
<rect width="106" height="106" fill="white"/>
</clipPath>
</defs>
</svg>
