<svg width="106" height="106" viewBox="0 0 106 106" fill="none" xmlns="http://www.w3.org/2000/svg">
<g clip-path="url(#clip0_10_23)">
<path opacity="0.948" fill-rule="evenodd" clip-rule="evenodd" d="M33.4355 -0.103516C55.7949 -0.103516 78.1543 -0.103516 100.514 -0.103516C103.205 0.793619 104.999 2.58789 105.896 5.2793C105.896 19.3574 105.896 33.4355 105.896 47.5137C105.037 50.2016 103.243 51.9613 100.514 52.793C78.1543 52.9311 55.7949 52.9311 33.4355 52.793C30.5332 51.9607 28.7734 50.0629 28.1562 47.0996C28.0182 33.2975 28.0182 19.4955 28.1562 5.69336C28.8123 2.72671 30.5721 0.794414 33.4355 -0.103516ZM34.2637 3.62305C56.14 3.58854 78.0164 3.62305 99.8926 3.72656C101.899 4.73766 102.658 6.35942 102.17 8.5918C78.7064 8.5918 55.2428 8.5918 31.7793 8.5918C31.4164 6.28067 32.2445 4.62442 34.2637 3.62305ZM31.7793 12.3184C55.2428 12.3184 78.7064 12.3184 102.17 12.3184C102.17 14.0436 102.17 15.7689 102.17 17.4941C78.7064 17.4941 55.2428 17.4941 31.7793 17.4941C31.7793 15.7689 31.7793 14.0436 31.7793 12.3184ZM31.7793 21.2207C55.2428 21.2207 78.7064 21.2207 102.17 21.2207C102.204 29.7783 102.17 38.3356 102.066 46.8926C101.618 47.8932 100.893 48.6178 99.8926 49.0664C78.0162 49.2045 56.14 49.2045 34.2637 49.0664C32.9718 48.6714 32.1782 47.8087 31.8828 46.4785C31.7793 38.0596 31.7447 29.6403 31.7793 21.2207ZM38.8184 30.123C49.9291 30.123 61.0396 30.123 72.1504 30.123C72.1504 31.7793 72.1504 33.4355 72.1504 35.0918C61.0396 35.0918 49.9291 35.0918 38.8184 35.0918C38.8184 33.4355 38.8184 31.7793 38.8184 30.123ZM85.8144 30.123C88.6448 30.0885 91.4741 30.123 94.3027 30.2266C94.5443 30.4682 94.7857 30.7096 95.0273 30.9512C95.1654 31.9863 95.1654 33.0215 95.0273 34.0566C94.8549 34.5053 94.5443 34.8158 94.0957 34.9883C91.3353 35.1264 88.5748 35.1264 85.8144 34.9883C84.9927 34.4134 84.6476 33.6198 84.7793 32.6074C84.6482 31.5441 84.9934 30.716 85.8144 30.123Z" fill="#090E10"/>
<path opacity="0.947" fill-rule="evenodd" clip-rule="evenodd" d="M37.5762 26.3965C49.5842 26.3619 61.592 26.3965 73.5996 26.5C74.6002 26.9486 75.3248 27.6732 75.7735 28.6738C75.9116 31.2963 75.9116 33.9186 75.7735 36.541C75.3064 37.6294 74.5126 38.354 73.3926 38.7148C61.4537 38.8529 49.5151 38.8529 37.5762 38.7148C36.6553 38.2772 35.9307 37.6215 35.4024 36.748C35.1777 35.3462 35.0742 33.9314 35.0918 32.5039C35.0701 31.1423 35.1736 29.7966 35.4024 28.4668C35.8384 27.4434 36.563 26.7534 37.5762 26.3965ZM38.8184 30.123C38.8184 31.7793 38.8184 33.4355 38.8184 35.0918C49.9291 35.0918 61.0397 35.0918 72.1504 35.0918C72.1504 33.4355 72.1504 31.7793 72.1504 30.123C61.0397 30.123 49.9291 30.123 38.8184 30.123Z" fill="#FFAE00"/>
<path opacity="0.941" fill-rule="evenodd" clip-rule="evenodd" d="M84.9863 26.3965C88.3686 26.3619 91.75 26.3965 95.1309 26.5C96.979 27.1749 98.1868 28.4517 98.7539 30.3301C98.892 31.8482 98.892 33.3666 98.7539 34.8848C98.1674 36.8516 96.8906 38.1283 94.9238 38.7148C91.6803 38.8529 88.4369 38.8529 85.1934 38.7148C82.9326 38.179 81.5869 36.7644 81.1562 34.4707C81.0182 33.1596 81.0182 31.8482 81.1562 30.5371C81.6918 28.4496 82.9684 27.0693 84.9863 26.3965ZM85.8144 30.123C84.9934 30.716 84.6482 31.5441 84.7793 32.6074C84.6476 33.6198 84.9927 34.4134 85.8144 34.9883C88.5748 35.1264 91.3353 35.1264 94.0957 34.9883C94.5443 34.8158 94.8549 34.5053 95.0273 34.0566C95.1654 33.0215 95.1654 31.9863 95.0273 30.9512C94.7857 30.7096 94.5443 30.4682 94.3027 30.2266C91.4741 30.123 88.6448 30.0885 85.8144 30.123Z" fill="#FFAE00"/>
<path opacity="0.94" fill-rule="evenodd" clip-rule="evenodd" d="M105.896 79.1895C105.896 80.2936 105.896 81.3979 105.896 82.502C105.391 84.0222 104.494 85.2989 103.205 86.332C91.7134 92.5956 80.1886 98.8065 68.6309 104.965C67.6466 105.305 66.6804 105.615 65.7324 105.896C64.1451 105.896 62.558 105.896 60.9707 105.896C48.2501 102.75 35.5177 99.576 22.7734 96.373C22.3939 97.5807 21.6002 98.3744 20.3926 98.7539C14.3197 98.892 8.24674 98.892 2.17383 98.7539C1.16879 98.2659 0.40968 97.5413 -0.103516 96.5801C-0.103516 88.0918 -0.103516 79.6035 -0.103516 71.1152C0.396792 69.7904 1.36294 68.9969 2.79492 68.7344C8.52279 68.5963 14.2506 68.5963 19.9785 68.7344C20.3926 68.8725 20.8066 69.0103 21.2207 69.1484C21.4743 69.472 21.7849 69.7136 22.1523 69.873C26.3418 67.2773 30.586 64.7585 34.8848 62.3164C35.8276 61.956 36.7938 61.68 37.7832 61.4883C46.3978 60.7484 55.0239 60.2653 63.6621 60.0391C67.2529 61.3866 68.7367 63.9745 68.1133 67.8027C67.4576 70.1147 65.974 71.5982 63.6621 72.2539C59.4422 72.9599 55.2326 73.7191 51.0332 74.5312C50.9297 74.6348 50.8262 74.7383 50.7227 74.8418C50.4384 76.3318 50.1279 77.8156 49.791 79.293C50.0022 79.7124 50.3473 79.9884 50.8262 80.1211C55.2508 81.7225 59.6674 83.3442 64.0762 84.9863C70.7326 78.5715 77.3576 72.1189 83.9512 65.6289C86.4119 64.3393 88.8274 64.4085 91.1973 65.8359C93.1862 67.6839 93.8419 69.9267 93.1641 72.5645C92.3831 73.9656 91.5204 75.3113 90.5762 76.6016C93.2148 75.9759 95.837 75.2169 98.4434 74.3242C102.205 74.029 104.689 75.6507 105.896 79.1895ZM59.3145 63.6621C60.4896 63.6277 61.6628 63.6623 62.834 63.7656C64.2062 64.4056 64.7238 65.4751 64.3867 66.9746C63.959 68.0359 63.1652 68.6224 62.0059 68.7344C58.0683 69.4021 54.1347 70.0923 50.2051 70.8047C49.12 71.0612 48.2573 71.6477 47.6172 72.5645C46.7081 75.0397 46.2249 77.593 46.168 80.2246C46.5069 81.8059 47.4385 82.8756 48.9629 83.4336C54.2236 85.417 59.5029 87.3146 64.8008 89.127C76.4084 85.488 88.0022 81.7614 99.582 77.9473C101.667 78.4479 102.495 79.759 102.066 81.8809C101.765 82.3902 101.385 82.8388 100.928 83.2266C89.5739 89.4211 78.1872 95.5631 66.7676 101.652C64.354 102.335 61.9386 102.335 59.5215 101.652C47.3124 98.6173 35.0976 95.6153 22.877 92.6465C22.808 86.3649 22.877 80.0851 23.084 73.8066C27.1138 71.3978 31.1166 68.948 35.0918 66.457C36.5768 65.6401 38.1641 65.1569 39.8535 65.0078C46.3773 64.6263 52.8644 64.1776 59.3145 63.6621ZM86.6426 68.4238C88.3903 68.1363 89.4255 68.8609 89.748 70.5977C89.477 71.557 89.0284 72.4197 88.4023 73.1855C87.0633 75.1387 85.6486 77.0365 84.1582 78.8789C79.9689 80.3904 75.7594 81.7707 71.5293 83.0195C76.5455 78.1065 81.5831 73.2412 86.6426 68.4238ZM3.62305 72.3574C8.79883 72.3574 13.9746 72.3574 19.1504 72.3574C19.1504 79.9486 19.1504 87.5396 19.1504 95.1309C13.9746 95.1309 8.79883 95.1309 3.62305 95.1309C3.62305 87.5396 3.62305 79.9486 3.62305 72.3574Z" fill="#090E10"/>
</g>
<defs>
<clipPath id="clip0_10_23">
<rect width="106" height="106" fill="white"/>
</clipPath>
</defs>
</svg>
