<svg width="49" height="41" viewBox="0 0 49 41" fill="none" xmlns="http://www.w3.org/2000/svg">
<path opacity="0.993" fill-rule="evenodd" clip-rule="evenodd" d="M48.9521 9.34668C48.9521 16.7517 48.9521 24.1566 48.9521 31.5615C48.0846 35.9284 45.4049 38.6976 40.9131 39.8691C40.4374 39.9505 39.9589 40.0116 39.4775 40.0527C29.4606 40.114 19.4437 40.114 9.42676 40.0527C5.33228 39.6124 2.41334 37.6081 0.669922 34.04C0.353232 33.2215 0.113974 32.3953 -0.0478516 31.5615C-0.0478516 24.1566 -0.0478516 16.7517 -0.0478516 9.34668C0.822383 4.97744 3.50207 2.20823 7.99121 1.03906C8.46687 0.95777 8.94539 0.896569 9.42676 0.855471C19.4437 0.79427 29.4606 0.79427 39.4775 0.855471C43.5698 1.29304 46.4888 3.29727 48.2344 6.86817C48.5511 7.68672 48.7903 8.51289 48.9521 9.34668ZM17.2744 11.6416C17.7605 11.7104 18.2071 11.8787 18.6143 12.1465C20.5455 14.0143 22.4916 15.8655 24.4521 17.7002C26.4792 15.7711 28.5209 13.8587 30.5771 11.9629C31.8855 11.4187 32.8585 11.7707 33.4961 13.0186C33.6405 13.6881 33.5129 14.3 33.1133 14.8545C31.166 16.707 29.236 18.5736 27.3232 20.4541C29.3344 22.3985 31.3282 24.3568 33.3047 26.3291C33.8745 27.9289 33.3003 28.9081 31.582 29.2666C31.1139 29.1883 30.6833 29.02 30.29 28.7617C28.3587 26.8939 26.4127 25.0427 24.4521 23.208C22.4251 25.1371 20.3834 27.0495 18.3271 28.9453C17.0188 29.4895 16.0458 29.1375 15.4082 27.8897C15.2638 27.2201 15.3914 26.6082 15.791 26.0537C17.7383 24.2013 19.6683 22.3347 21.5811 20.4541C19.6683 18.5736 17.7383 16.707 15.791 14.8545C15.1261 13.8318 15.2378 12.8985 16.126 12.0547C16.4897 11.8329 16.8726 11.6952 17.2744 11.6416Z" fill="#FFAE00"/>
</svg>
